<svg xmlns="http://www.w3.org/2000/svg" xmlns:xlink="http://www.w3.org/1999/xlink" width="500" zoomAndPan="magnify" viewBox="0 0 375 374.999991" height="500" preserveAspectRatio="xMidYMid meet" version="1.0"><defs><g/><clipPath id="d635fae0d7"><path d="M 64.421875 182.546875 L 310.578125 182.546875 L 310.578125 212.996094 L 64.421875 212.996094 Z M 64.421875 182.546875 " clip-rule="nonzero"/></clipPath></defs><g fill="#00175f" fill-opacity="1"><g transform="translate(83.687512, 239.999984)"><g><path d="M 3.296875 0 L 3.296875 -1.5 L 6.296875 -2.703125 C 8.296875 -3.398438 9.617188 -4.347656 10.265625 -5.546875 C 10.921875 -6.742188 11.25 -8.296875 11.25 -10.203125 L 11.25 -88.65625 C 11.25 -90.65625 10.921875 -92.253906 10.265625 -93.453125 C 9.617188 -94.648438 8.296875 -95.597656 6.296875 -96.296875 L 3.296875 -97.5 L 3.296875 -99 L 41.40625 -99 L 41.40625 -97.5 L 38.84375 -96.453125 C 36.945312 -95.753906 35.648438 -94.828125 34.953125 -93.671875 C 34.253906 -92.523438 33.90625 -90.953125 33.90625 -88.953125 L 33.90625 -52.5 L 69.75 -52.5 L 69.75 -88.953125 C 69.75 -90.953125 69.421875 -92.523438 68.765625 -93.671875 C 68.117188 -94.828125 66.796875 -95.753906 64.796875 -96.453125 L 62.09375 -97.5 L 62.09375 -99 L 100.34375 -99 L 100.34375 -97.5 L 97.34375 -96.296875 C 95.445312 -95.597656 94.148438 -94.648438 93.453125 -93.453125 C 92.753906 -92.253906 92.40625 -90.65625 92.40625 -88.65625 L 92.40625 -10.203125 C 92.40625 -8.296875 92.753906 -6.742188 93.453125 -5.546875 C 94.148438 -4.347656 95.445312 -3.398438 97.34375 -2.703125 L 100.34375 -1.5 L 100.34375 0 L 62.09375 0 L 62.09375 -1.5 L 64.796875 -2.40625 C 66.796875 -3.195312 68.117188 -4.164062 68.765625 -5.3125 C 69.421875 -6.46875 69.75 -8.046875 69.75 -10.046875 L 69.75 -49.5 L 33.90625 -49.5 L 33.90625 -10.046875 C 33.90625 -6.347656 35.550781 -3.800781 38.84375 -2.40625 L 41.40625 -1.5 L 41.40625 0 Z M 3.296875 0 "/></g></g></g><g fill="#00175f" fill-opacity="1"><g transform="translate(193.787531, 239.999984)"><g><path d="M 1.203125 0 L 1.203125 -1.5 L 4.953125 -2.84375 C 6.953125 -3.644531 8.5 -4.617188 9.59375 -5.765625 C 10.695312 -6.921875 11.597656 -8.550781 12.296875 -10.65625 L 43.203125 -99.296875 L 55.953125 -99.296875 L 86.40625 -10.046875 C 87.195312 -7.847656 88.09375 -6.171875 89.09375 -5.015625 C 90.09375 -3.867188 91.644531 -2.894531 93.75 -2.09375 L 95.546875 -1.5 L 95.546875 0 L 57.453125 0 L 57.453125 -1.5 L 59.703125 -2.25 C 61.796875 -3.050781 63.066406 -4.175781 63.515625 -5.625 C 63.972656 -7.070312 63.898438 -8.796875 63.296875 -10.796875 L 56.25 -32.40625 L 22.953125 -32.40625 L 15.75 -11.25 C 15.050781 -9.050781 14.828125 -7.300781 15.078125 -6 C 15.328125 -4.695312 16.5 -3.644531 18.59375 -2.84375 L 21.90625 -1.5 L 21.90625 0 Z M 24 -35.40625 L 55.34375 -35.40625 L 40.203125 -82.046875 Z M 24 -35.40625 "/></g></g></g><g clip-path="url(#d635fae0d7)"><path fill="#f5f6f7" d="M 64.421875 182.546875 L 310.578125 182.546875 L 310.578125 212.996094 L 64.421875 212.996094 Z M 64.421875 182.546875 " fill-opacity="1" fill-rule="nonzero"/></g><g fill="#000000" fill-opacity="1"><g transform="translate(82.91671, 203.326875)"><g><path d="M 8.015625 -8.609375 L 8.015625 0 L 7.03125 0 L 7.03125 -3.828125 L 2.03125 -3.828125 L 2.03125 0 L 1.046875 0 L 1.046875 -8.609375 L 2.03125 -8.609375 L 2.03125 -4.78125 L 7.03125 -4.78125 L 7.03125 -8.609375 Z M 8.015625 -8.609375 "/></g></g></g><g fill="#000000" fill-opacity="1"><g transform="translate(100.68497, 203.326875)"><g><path d="M 2.03125 -7.671875 L 2.03125 -4.78125 L 6.8125 -4.78125 L 6.8125 -3.828125 L 2.03125 -3.828125 L 2.03125 -0.9375 L 7.390625 -0.9375 L 7.390625 0 L 1.046875 0 L 1.046875 -8.609375 L 7.390625 -8.609375 L 7.390625 -7.671875 Z M 2.03125 -7.671875 "/></g></g></g><g fill="#000000" fill-opacity="1"><g transform="translate(117.296587, 203.326875)"><g><path d="M 4.890625 -0.84375 C 5.503906 -0.84375 6.039062 -1 6.5 -1.3125 C 6.96875 -1.625 7.316406 -2.046875 7.546875 -2.578125 L 8.5625 -2.578125 C 8.28125 -1.765625 7.8125 -1.125 7.15625 -0.65625 C 6.445312 -0.144531 5.617188 0.109375 4.671875 0.109375 C 3.410156 0.109375 2.390625 -0.320312 1.609375 -1.1875 C 0.867188 -2.007812 0.5 -3.046875 0.5 -4.296875 C 0.5 -5.554688 0.867188 -6.597656 1.609375 -7.421875 C 2.390625 -8.273438 3.410156 -8.703125 4.671875 -8.703125 C 5.617188 -8.703125 6.445312 -8.453125 7.15625 -7.953125 C 7.8125 -7.484375 8.28125 -6.84375 8.5625 -6.03125 L 7.546875 -6.03125 C 7.316406 -6.5625 6.96875 -6.984375 6.5 -7.296875 C 6.039062 -7.609375 5.503906 -7.765625 4.890625 -7.765625 C 4.273438 -7.765625 3.765625 -7.675781 3.359375 -7.5 C 2.953125 -7.320312 2.609375 -7.078125 2.328125 -6.765625 C 1.765625 -6.128906 1.484375 -5.304688 1.484375 -4.296875 C 1.484375 -3.296875 1.765625 -2.476562 2.328125 -1.84375 C 2.921875 -1.175781 3.773438 -0.84375 4.890625 -0.84375 Z M 4.890625 -0.84375 "/></g></g></g><g fill="#000000" fill-opacity="1"><g transform="translate(134.973866, 203.326875)"><g><path d="M 7.15625 -7.671875 L 4.15625 -7.671875 L 4.15625 0 L 3.1875 0 L 3.1875 -7.671875 L 0.1875 -7.671875 L 0.1875 -8.609375 L 7.15625 -8.609375 Z M 7.15625 -7.671875 "/></g></g></g><g fill="#000000" fill-opacity="1"><g transform="translate(151.026646, 203.326875)"><g><path d="M 4.875 -8.703125 C 6.15625 -8.703125 7.207031 -8.273438 8.03125 -7.421875 C 8.84375 -6.585938 9.25 -5.546875 9.25 -4.296875 C 9.25 -3.054688 8.84375 -2.019531 8.03125 -1.1875 C 7.207031 -0.320312 6.15625 0.109375 4.875 0.109375 C 3.59375 0.109375 2.539062 -0.320312 1.71875 -1.1875 C 0.90625 -2.019531 0.5 -3.054688 0.5 -4.296875 C 0.5 -5.546875 0.90625 -6.585938 1.71875 -7.421875 C 2.539062 -8.273438 3.59375 -8.703125 4.875 -8.703125 Z M 4.875 -0.84375 C 5.894531 -0.84375 6.722656 -1.175781 7.359375 -1.84375 C 7.960938 -2.488281 8.265625 -3.304688 8.265625 -4.296875 C 8.265625 -5.296875 7.960938 -6.117188 7.359375 -6.765625 C 6.722656 -7.429688 5.894531 -7.765625 4.875 -7.765625 C 3.851562 -7.765625 3.023438 -7.429688 2.390625 -6.765625 C 1.785156 -6.117188 1.484375 -5.296875 1.484375 -4.296875 C 1.484375 -3.304688 1.785156 -2.488281 2.390625 -1.84375 C 3.023438 -1.175781 3.851562 -0.84375 4.875 -0.84375 Z M 4.875 -0.84375 "/></g></g></g><g fill="#000000" fill-opacity="1"><g transform="translate(169.483694, 203.326875)"><g><path d="M 2.03125 0 L 1.046875 0 L 1.046875 -8.609375 L 5.171875 -8.609375 C 6.046875 -8.609375 6.75 -8.363281 7.28125 -7.875 C 7.8125 -7.394531 8.078125 -6.742188 8.078125 -5.921875 C 8.078125 -4.835938 7.628906 -4.101562 6.734375 -3.71875 C 6.484375 -3.601562 6.238281 -3.519531 6 -3.46875 L 8.25 0 L 7.09375 0 L 5.015625 -3.296875 L 2.03125 -3.296875 Z M 2.03125 -4.21875 L 5 -4.21875 C 5.925781 -4.21875 6.5625 -4.503906 6.90625 -5.078125 C 7.03125 -5.296875 7.09375 -5.578125 7.09375 -5.921875 C 7.09375 -6.460938 6.90625 -6.890625 6.53125 -7.203125 C 6.164062 -7.523438 5.675781 -7.6875 5.0625 -7.6875 L 2.03125 -7.6875 Z M 2.03125 -4.21875 "/></g></g></g><g fill="#000000" fill-opacity="1"><g transform="translate(186.888062, 203.326875)"><g/></g></g><g fill="#000000" fill-opacity="1"><g transform="translate(198.366245, 203.326875)"><g><path d="M 8.5625 0 L 7.484375 0 L 6.4375 -2.5 L 2.171875 -2.5 L 1.125 0 L 0.03125 0 L 3.6875 -8.609375 L 4.90625 -8.609375 Z M 6.0625 -3.390625 L 4.296875 -7.59375 L 2.546875 -3.390625 Z M 6.0625 -3.390625 "/></g></g></g><g fill="#000000" fill-opacity="1"><g transform="translate(215.679632, 203.326875)"><g><path d="M 2.03125 -8.609375 L 2.03125 -0.9375 L 6.71875 -0.9375 L 6.71875 0 L 1.046875 0 L 1.046875 -8.609375 Z M 2.03125 -8.609375 "/></g></g></g><g fill="#000000" fill-opacity="1"><g transform="translate(231.316541, 203.326875)"><g><path d="M 2.03125 -7.671875 L 2.03125 -4.6875 L 6.6875 -4.6875 L 6.6875 -3.734375 L 2.03125 -3.734375 L 2.03125 0 L 1.046875 0 L 1.046875 -8.609375 L 7.265625 -8.609375 L 7.265625 -7.671875 Z M 2.03125 -7.671875 "/></g></g></g><g fill="#000000" fill-opacity="1"><g transform="translate(247.603245, 203.326875)"><g><path d="M 8.5625 0 L 7.484375 0 L 6.4375 -2.5 L 2.171875 -2.5 L 1.125 0 L 0.03125 0 L 3.6875 -8.609375 L 4.90625 -8.609375 Z M 6.0625 -3.390625 L 4.296875 -7.59375 L 2.546875 -3.390625 Z M 6.0625 -3.390625 "/></g></g></g><g fill="#000000" fill-opacity="1"><g transform="translate(264.916633, 203.326875)"><g><path d="M 2.03125 0 L 1.046875 0 L 1.046875 -8.609375 L 5.171875 -8.609375 C 6.046875 -8.609375 6.75 -8.363281 7.28125 -7.875 C 7.8125 -7.394531 8.078125 -6.742188 8.078125 -5.921875 C 8.078125 -4.835938 7.628906 -4.101562 6.734375 -3.71875 C 6.484375 -3.601562 6.238281 -3.519531 6 -3.46875 L 8.25 0 L 7.09375 0 L 5.015625 -3.296875 L 2.03125 -3.296875 Z M 2.03125 -4.21875 L 5 -4.21875 C 5.925781 -4.21875 6.5625 -4.503906 6.90625 -5.078125 C 7.03125 -5.296875 7.09375 -5.578125 7.09375 -5.921875 C 7.09375 -6.460938 6.90625 -6.890625 6.53125 -7.203125 C 6.164062 -7.523438 5.675781 -7.6875 5.0625 -7.6875 L 2.03125 -7.6875 Z M 2.03125 -4.21875 "/></g></g></g><g fill="#000000" fill-opacity="1"><g transform="translate(282.321001, 203.326875)"><g><path d="M 4.875 -8.703125 C 6.15625 -8.703125 7.207031 -8.273438 8.03125 -7.421875 C 8.84375 -6.585938 9.25 -5.546875 9.25 -4.296875 C 9.25 -3.054688 8.84375 -2.019531 8.03125 -1.1875 C 7.207031 -0.320312 6.15625 0.109375 4.875 0.109375 C 3.59375 0.109375 2.539062 -0.320312 1.71875 -1.1875 C 0.90625 -2.019531 0.5 -3.054688 0.5 -4.296875 C 0.5 -5.546875 0.90625 -6.585938 1.71875 -7.421875 C 2.539062 -8.273438 3.59375 -8.703125 4.875 -8.703125 Z M 4.875 -0.84375 C 5.894531 -0.84375 6.722656 -1.175781 7.359375 -1.84375 C 7.960938 -2.488281 8.265625 -3.304688 8.265625 -4.296875 C 8.265625 -5.296875 7.960938 -6.117188 7.359375 -6.765625 C 6.722656 -7.429688 5.894531 -7.765625 4.875 -7.765625 C 3.851562 -7.765625 3.023438 -7.429688 2.390625 -6.765625 C 1.785156 -6.117188 1.484375 -5.296875 1.484375 -4.296875 C 1.484375 -3.304688 1.785156 -2.488281 2.390625 -1.84375 C 3.023438 -1.175781 3.851562 -0.84375 4.875 -0.84375 Z M 4.875 -0.84375 "/></g></g></g></svg>